<?xml version="1.0" encoding="utf-8"?>
<!-- Svg Vector Icons : http://www.onlinewebfonts.com/icon -->
<!DOCTYPE svg PUBLIC "-//W3C//DTD SVG 1.1//EN" "http://www.w3.org/Graphics/SVG/1.1/DTD/svg11.dtd">
<svg version="1.1" xmlns="http://www.w3.org/2000/svg" xmlns:xlink="http://www.w3.org/1999/xlink" x="0px" y="0px" viewBox="0 0 1000 1000" enable-background="new 0 0 1000 1000" xml:space="preserve">
<metadata> Svg Vector Icons : http://www.onlinewebfonts.com/icon </metadata>
<g><g><g><path d="M818,303.7C752,226,669.1,178.7,569.5,161.8V91.1h5.8c11.6,0,21.2-3.9,29-11.6c7.7-7.7,11.6-17.4,11.6-29s-3.9-21.2-11.6-29c-7.7-7.7-17.4-11.6-29-11.6H424.7v0c-11.6,0-21.2,3.9-29,11.6c-7.7,7.7-11.6,17.4-11.6,29c0,11.6,3.9,21.2,11.6,29c7.7,7.7,17.4,11.6,29,11.6h5.8v70.7C330.9,178.7,248,226,182,303.7S83,471,83,573c0,75.7,18.5,145.6,55.6,209.7c37.1,64.1,87.7,114.7,151.7,151.7c64.1,37.1,134,55.6,209.7,55.6c75.7,0,145.6-18.5,209.7-55.6c64.1-37.1,114.7-87.7,151.7-151.7c37.1-64.1,55.6-134,55.6-209.7C917,471,884,381.3,818,303.7z M734.6,808.1C670.1,873,591.9,905.4,500,905.4c-91.9,0-170.1-32.4-234.6-97.3c-64.5-64.9-96.7-143.1-96.7-234.6c0-91.5,32.2-169.7,96.7-234.6c64.5-64.9,142.7-97.3,234.6-97.3c91.9,0,170.1,32.4,234.6,97.3s96.7,143.1,96.7,234.6C831.3,665.1,799.1,743.3,734.6,808.1z M625.1,432.8l67.2-8.1l-17.4,64.9L523.2,620.5H500h-9.3h-4.6c-7,0-12.7-2.3-17.4-7c-4.6-4.6-7-10-7-16.2v-4.6v-9.3V335.5l38.2-55.6l38.2,55.6v173.8L625.1,432.8z"/></g></g><g></g><g></g><g></g><g></g><g></g><g></g><g></g><g></g><g></g><g></g><g></g><g></g><g></g><g></g><g></g></g>
</svg>