<?xml version="1.0" encoding="UTF-8" standalone="no"?>
<svg
   xmlns:dc="http://purl.org/dc/elements/1.1/"
   xmlns:cc="http://creativecommons.org/ns#"
   xmlns:rdf="http://www.w3.org/1999/02/22-rdf-syntax-ns#"
   xmlns:svg="http://www.w3.org/2000/svg"
   xmlns="http://www.w3.org/2000/svg"
   xmlns:sodipodi="http://sodipodi.sourceforge.net/DTD/sodipodi-0.dtd"
   xmlns:inkscape="http://www.inkscape.org/namespaces/inkscape"
   sodipodi:docname="delete-icon.svg"
   inkscape:version="1.0 (1.0+r73+1)"
   id="svg8"
   version="1.1"
   viewBox="0 0 107.60852 139.95628"
   height="139.95628mm"
   width="107.60852mm">
  <defs
     id="defs2" />
  <sodipodi:namedview
     fit-margin-bottom="1"
     fit-margin-right="1"
     fit-margin-left="1"
     fit-margin-top="1"
     inkscape:document-rotation="0"
     inkscape:window-maximized="1"
     inkscape:window-y="32"
     inkscape:window-x="0"
     inkscape:window-height="1376"
     inkscape:window-width="2560"
     showgrid="false"
     inkscape:current-layer="layer1"
     inkscape:document-units="mm"
     inkscape:cy="289.39009"
     inkscape:cx="253.72522"
     inkscape:zoom="1"
     inkscape:pageshadow="2"
     inkscape:pageopacity="0.0"
     borderopacity="1.0"
     bordercolor="#666666"
     pagecolor="#ffffff"
     id="base" />
  <metadata
     id="metadata5">
    <rdf:RDF>
      <cc:Work
         rdf:about="">
        <dc:format>image/svg+xml</dc:format>
        <dc:type
           rdf:resource="http://purl.org/dc/dcmitype/StillImage" />
        <dc:title></dc:title>
      </cc:Work>
    </rdf:RDF>
  </metadata>
  <g
     transform="translate(-5.3274115,-202.56338)"
     id="layer1"
     inkscape:groupmode="layer"
     inkscape:label="Layer 1">
    <path
       inkscape:connector-curvature="0"
       id="path826"
       d="m 21.354977,340.39499 c -1.220634,-0.60164 -2.894379,-2.04019 -3.719394,-3.1968 l -1.500069,-2.10296 -0.182878,-45.47824 -0.182876,-45.47824 h 44.66539 44.66536 l -0.18766,44.80198 c -0.18345,43.80228 -0.21864,44.85475 -1.57671,47.16659 -0.764,1.30052 -2.40664,3.05035 -3.650358,3.88847 l -2.26128,1.52387 -36.92502,-0.0158 c -32.628877,-0.0141 -37.183257,-0.14281 -39.14439,-1.10932 z m 12.566088,-10.50693 c 1.170623,-1.17062 1.170623,-72.94708 0,-74.11769 -1.043125,-1.04313 -3.420178,-1.04313 -4.463304,0 -1.170622,1.17061 -1.170622,72.94707 0,74.11769 0.446341,0.44631 1.450574,0.81149 2.231652,0.81149 0.78108,0 1.78531,-0.36518 2.231652,-0.81149 z m 18.935165,0 c 1.170622,-1.17062 1.170622,-72.94708 0,-74.11769 -1.043125,-1.04313 -3.42016,-1.04313 -4.463286,0 -1.170623,1.17061 -1.170623,72.94707 0,74.11769 0.446323,0.44631 1.450573,0.81149 2.231652,0.81149 0.781081,0 1.785312,-0.36518 2.231634,-0.81149 z m 18.935185,0 c 1.170621,-1.17062 1.170621,-72.94708 0,-74.11769 -1.123179,-1.12318 -2.946484,-1.01446 -4.21211,0.25116 -0.939456,0.93948 -1.062697,5.23676 -1.062697,37.05886 0,37.90876 -0.02339,37.61916 3.043153,37.61916 0.781079,0 1.785329,-0.36518 2.231654,-0.81149 z m 18.676987,0.40103 c 0.95721,-0.36733 1.06969,-4.26418 1.06969,-37.05886 0,-27.60261 -0.2003,-36.84867 -0.81149,-37.45986 -1.12318,-1.12318 -2.94649,-1.01446 -4.21211,0.25116 -0.93946,0.93948 -1.0627,5.23676 -1.0627,37.05886 0,27.09533 0.20067,36.19682 0.81152,36.80767 0.88604,0.88603 2.53207,1.04302 4.20509,0.40103 z M 6.7745623,235.92548 c -1.057945,-3.95197 -0.187671,-7.44742 2.07241,-8.32411 0.998367,-0.38723 26.0920307,-3.7092 28.2524877,-3.74011 0.398571,-0.006 0.676262,-2.43948 0.676262,-5.92719 0,-6.67687 0.846197,-8.493 5.071917,-10.88541 2.39093,-1.3536 16.512679,-3.48528 23.089054,-3.48528 5.884051,0 10.220167,4.53178 11.009219,11.506 0.45792,4.04748 0.508183,4.13051 2.289199,3.78134 5.418181,-1.0622 27.281299,-3.2361 28.775119,-2.86119 2.10439,0.52818 2.85759,1.80106 3.46576,5.85703 l 0.45994,3.06743 -49.928979,5.94172 c -27.460941,3.26794 -51.026319,6.10381 -52.3675307,6.30195 -2.135613,0.31547 -2.491515,0.16237 -2.864858,-1.23218 z M 58.739668,219.43574 c 13.380425,-1.51627 12.496099,-1.20714 12.040287,-4.2091 -0.211612,-1.39359 -1.029189,-3.25126 -1.816843,-4.12814 -1.577189,-1.75583 -2.963581,-1.75434 -16.918421,0.0192 -7.199517,0.91456 -8.520792,1.87553 -8.520792,6.19707 0,3.61653 0.355707,3.9922 3.359487,3.54797 1.313781,-0.19432 6.649105,-0.83608 11.856282,-1.42616 z"
       style="fill:#000000;stroke-width:0.676258" />
  </g>
</svg>
